<svg width="319" height="101" fill="none" xmlns="http://www.w3.org/2000/svg"><path d="M19.07 66.114c-3.53 0-6.728-.87-9.593-2.61-2.814-1.74-5.04-4.246-6.677-7.52C1.163 52.657.344 48.743.344 44.24c0-7.777 1.663-14.965 4.989-21.566 3.325-6.65 8.237-11.972 14.735-15.963C26.566 2.67 34.368.65 43.475.65c2.354 0 4.861.18 7.522.538 2.711.358 5.167.895 7.367 1.611 1.433.41 2.15 1.433 2.15 3.07 0 1.33-.513 2.584-1.536 3.76-.972 1.178-2.123 1.766-3.453 1.766-.41 0-.717-.026-.921-.077-2.66-.614-4.938-1.049-6.83-1.305a37.384 37.384 0 0 0-5.987-.46c-6.498 0-12.023 1.586-16.577 4.758-4.554 3.121-7.956 7.266-10.207 12.433-2.252 5.168-3.377 10.744-3.377 16.73 0 4.35.844 7.726 2.533 10.131 1.74 2.354 3.99 3.53 6.753 3.53 3.121 0 5.858-1.279 8.212-3.837 2.354-2.558 4.502-6.702 6.447-12.433 1.944-5.73 3.863-13.507 5.756-23.33.307-1.433.92-2.405 1.842-2.917.92-.512 2.148-.767 3.683-.767 3.633 0 5.45 1.177 5.45 3.53 0 .41-.078.921-.231 1.535-1.33 4.963-2.558 10.463-3.684 16.5-1.074 5.986-1.611 10.54-1.611 13.661 0 2.763.409 4.784 1.227 6.063.82 1.228 2.073 1.842 3.761 1.842 1.637 0 3.198-.537 4.681-1.612 1.065-.807 2.327-2.01 3.787-3.607.128-6.118 1.07-11.95 2.824-17.498.46-1.484 1.202-2.558 2.225-3.223 1.075-.716 2.559-1.075 4.452-1.075 1.023 0 1.74.128 2.149.384.409.256.614.742.614 1.458 0 .819-.384 2.66-1.151 5.526a117.724 117.724 0 0 0-1.228 5.372c-.308 1.535-.563 3.428-.768 5.68 1.688-4.4 3.581-7.982 5.68-10.745 2.097-2.763 4.144-4.733 6.139-5.91 2.046-1.176 3.914-1.765 5.602-1.765 3.326 0 4.989 1.663 4.989 4.989 0 .665-.23 2.277-.69 4.835-.41 2.046-.615 3.325-.615 3.837 0 1.79.64 2.686 1.919 2.686.932 0 2.039-.477 3.318-1.43l.065-.412c.511-3.223 1.356-6.625 2.532-10.207.512-1.535 1.228-2.635 2.149-3.3s2.379-.998 4.375-.998c1.125 0 1.893.18 2.302.538.461.358.691.895.691 1.611 0 .41-.282 1.791-.844 4.145a79.95 79.95 0 0 0-1.228 5.142c-1.024 5.372-1.535 8.953-1.535 10.744 0 1.074.128 1.842.383 2.302.256.41.666.614 1.228.614.768 0 1.714-.767 2.84-2.302 1.177-1.535 2.405-3.863 3.684-6.984 1.33-3.121 2.609-6.958 3.837-11.512.409-1.535 1.023-2.635 1.842-3.3.87-.665 2.149-.998 3.837-.998 1.177 0 1.996.154 2.456.46.461.257.691.768.691 1.536 0 1.279-.64 4.784-1.919 10.514-1.432 6.549-2.149 10.59-2.149 12.126 0 .972.205 1.74.614 2.302.41.512.947.768 1.612.768 1.023 0 2.226-.614 3.607-1.842 1.039-.928 2.321-2.26 3.845-3.995.122-6.145 1.064-12.002 2.825-17.57.461-1.485 1.203-2.559 2.226-3.224 1.074-.716 2.558-1.075 4.451-1.075 1.024 0 1.74.128 2.149.384.409.256.614.742.614 1.458 0 .819-.384 2.66-1.151 5.526a117.323 117.323 0 0 0-1.228 5.372c-.307 1.535-.563 3.428-.767 5.68 1.688-4.4 3.581-7.982 5.679-10.745 2.097-2.763 4.144-4.733 6.139-5.91 2.047-1.176 3.914-1.765 5.603-1.765 1.637 0 2.865.435 3.684 1.305.869.819 1.304 2.047 1.304 3.684 0 1.33-.281 3.837-.844 7.521a166.98 166.98 0 0 0-1.228 8.903c-.307 2.762-.46 5.858-.46 9.286 0 1.944-.41 3.351-1.228 4.22-.768.82-2.047 1.229-3.838 1.229-1.688 0-2.916-.435-3.683-1.305-.768-.87-1.152-2.174-1.152-3.914 0-2.047.359-5.423 1.075-10.13.614-4.094.921-6.703.921-7.829 0-.818-.282-1.227-.844-1.227-.665 0-1.612.87-2.84 2.609-1.177 1.688-2.405 3.94-3.684 6.754a55.173 55.173 0 0 0-2.993 8.902c-.563 2.405-1.228 4.042-1.995 4.912-.717.818-1.868 1.228-3.454 1.228-1.944 0-3.325-1.024-4.144-3.07a13.182 13.182 0 0 1-.55-1.987 30.3 30.3 0 0 1-3.127 2.447c-2.507 1.74-5.372 2.61-8.596 2.61-2.456 0-4.272-.947-5.449-2.84-1.125-1.893-1.688-4.553-1.688-7.982-.87 3.48-2.175 6.166-3.914 8.059-1.74 1.842-3.607 2.763-5.603 2.763-2.302 0-4.195-1.05-5.679-3.147-1.433-2.149-2.149-4.81-2.149-7.981 0-.427.003-.85.01-1.268a12.531 12.531 0 0 1-5.541 1.268c-2.712 0-4.784-.691-6.217-2.073-1.381-1.381-2.072-3.248-2.072-5.602 0-.767.077-1.535.23-2.302.103-1.024.154-1.714.154-2.073 0-.818-.282-1.227-.845-1.227-.767 0-1.79.87-3.07 2.609-1.227 1.688-2.455 3.94-3.683 6.754a55.135 55.135 0 0 0-2.993 8.902c-.563 2.405-1.228 4.042-1.996 4.912-.716.818-1.867 1.228-3.453 1.228-1.944 0-3.326-1.024-4.145-3.07a13.145 13.145 0 0 1-.547-1.976 27.092 27.092 0 0 1-3.377 2.667c-2.404 1.586-5.346 2.379-8.825 2.379-3.582 0-6.473-1.024-8.673-3.07-2.2-2.098-3.581-5.04-4.144-8.826-3.786 7.93-9.363 11.896-16.73 11.896Z" fill="#161F38"/><path fill-rule="evenodd" clip-rule="evenodd" d="M259.4 63.888a14.026 14.026 0 0 1-3.099-2.912 27.847 27.847 0 0 1-3.528 2.759c-2.507 1.586-5.474 2.379-8.902 2.379-3.326 0-6.166-.896-8.519-2.686-2.303-1.791-4.503-4.861-6.6-9.21-1.689-3.479-3.019-6.037-3.991-7.675-.972-1.688-1.944-2.89-2.917-3.607-.92-.716-2.072-1.15-3.453-1.304-.205 1.074-.793 4.451-1.765 10.13a335.61 335.61 0 0 1-.768 4.682c-.511 3.12-1.535 5.525-3.07 7.214-1.534 1.637-3.862 2.456-6.983 2.456-3.428 0-6.473-.998-9.133-2.993-2.61-2.047-4.631-4.86-6.063-8.442-1.433-3.633-2.149-7.752-2.149-12.357 0-8.595 1.484-16.014 4.451-22.256 3.019-6.242 7.214-11 12.587-14.275 5.423-3.325 11.665-4.988 18.726-4.988 4.911 0 9.03.742 12.356 2.226 3.325 1.483 5.781 3.53 7.367 6.14 1.638 2.609 2.456 5.55 2.456 8.825 0 2.865-.691 5.68-2.072 8.442-1.33 2.712-3.351 5.116-6.063 7.214-2.712 2.098-6.012 3.658-9.9 4.682 2.456.665 4.349 1.74 5.679 3.223 1.33 1.484 2.661 3.658 3.991 6.523 1.432 3.07 2.84 5.322 4.221 6.754 1.433 1.433 3.07 2.149 4.912 2.149 1.637 0 3.197-.537 4.681-1.612.429-.325.89-.715 1.383-1.168a19.944 19.944 0 0 1-.435-4.204c0-3.888.742-7.342 2.226-10.36 1.483-3.07 3.53-5.45 6.139-7.138 2.61-1.74 5.501-2.61 8.673-2.61 3.888 0 7.009 1.357 9.363 4.068 2.404 2.66 3.811 5.96 4.221 9.9 1.805-.115 3.87-.432 6.194-.95.519-2.755 1.273-5.636 2.261-8.643.512-1.535 1.228-2.635 2.149-3.3s2.379-.998 4.374-.998c1.126 0 1.893.18 2.303.538.46.358.69.895.69 1.611 0 .41-.281 1.791-.844 4.145a80.624 80.624 0 0 0-1.228 5.142 171.506 171.506 0 0 0-1.074 6.063c-.307 1.892-.461 3.453-.461 4.681 0 1.944.538 2.916 1.612 2.916.768 0 1.714-.767 2.84-2.302 1.176-1.535 2.404-3.863 3.684-6.984 1.33-3.121 2.609-6.958 3.837-11.512.409-1.535 1.023-2.635 1.842-3.3.87-.665 2.149-.998 3.837-.998 1.177 0 1.995.154 2.456.46.46.308.691.82.691 1.536 0 1.228-.666 5.602-1.996 13.123a2414.21 2414.21 0 0 0-2.072 12.817c-1.893 13.15-4.502 23.56-7.828 31.236-3.326 7.674-7.751 11.511-13.277 11.511-2.609 0-4.733-.818-6.37-2.456-1.637-1.585-2.456-3.683-2.456-6.293 0-2.404.537-4.86 1.612-7.367 1.125-2.507 3.172-5.398 6.139-8.672 3.019-3.224 7.266-6.933 12.74-11.129l.231-1.765c.358-1.893.767-4.605 1.227-8.135-1.023 3.684-2.455 6.498-4.297 8.442-1.842 1.893-3.786 2.84-5.833 2.84-2.302 0-4.195-1.05-5.679-3.147-1.433-2.149-2.149-4.81-2.149-7.981 0-1.289.029-2.54.086-3.752a38.12 38.12 0 0 1-5.855.682c-.972 4.298-2.891 7.751-5.756 10.36-2.865 2.559-6.114 3.838-9.747 3.838-3.07 0-5.705-.742-7.905-2.226Zm-55.207-23.56c.665.818 1.867 1.227 3.607 1.227l-2.072 11.512c-.256 1.484-.614 2.558-1.075 3.223-.409.665-.946.998-1.611.998-.87 0-1.791-.588-2.763-1.765s-1.791-2.942-2.456-5.296c-.665-2.353-.998-5.167-.998-8.442 0-7.01 1.049-12.944 3.147-17.805 2.098-4.912 5.014-8.595 8.749-11.051 3.786-2.507 8.186-3.76 13.2-3.76 4.247 0 7.47.92 9.67 2.762s3.3 4.375 3.3 7.598c0 2.66-.69 5.04-2.072 7.137-1.33 2.098-3.146 3.735-5.449 4.912-2.251 1.177-4.758 1.842-7.521 1.995l2.302-12.74c.052-.306.077-.741.077-1.304 0-2.61-1.458-3.914-4.374-3.914-3.633 0-5.782 1.663-6.447 4.988-.716 3.633-1.484 7.956-2.302 12.97h-1.919c-1.023 0-1.944.359-2.763 1.075-.767.716-1.151 1.688-1.151 2.916a4.49 4.49 0 0 0 .921 2.763Zm63.726 17.65c1.637 0 3.044-.665 4.221-1.995 1.228-1.33 2.047-3.249 2.456-5.756a10.894 10.894 0 0 1-3.684-4.22 12.829 12.829 0 0 1-1.228-5.526c0-.819.077-1.638.23-2.456h-.383c-2.047 0-3.761.997-5.142 2.993-1.331 1.944-1.996 4.707-1.996 8.288 0 2.814.538 4.963 1.612 6.447 1.126 1.484 2.43 2.226 3.914 2.226Zm30.635 30.776c-1.586 2.967-3.019 4.451-4.298 4.451-.767 0-1.33-.281-1.688-.844-.307-.563-.461-1.28-.461-2.149 0-2.047.87-4.451 2.61-7.214 1.79-2.712 4.656-5.73 8.595-9.056-1.586 6.907-3.172 11.844-4.758 14.812Z" fill="#161F38"/><path d="M272.778 90.26c-8.122-1.295-16.34-2.687-24.63-4.09-26.904-4.556-54.558-9.238-82.057-11.18-36.062-2.545-72.275-.425-107.019 12.93a3.997 3.997 0 0 0 2.868 7.461c33.252-12.78 68.173-14.916 103.589-12.416 27.072 1.911 54.191 6.502 81.015 11.043 8.357 1.415 16.685 2.825 24.974 4.147a3.997 3.997 0 0 0 1.26-7.894Z" fill="#161F38"/></svg>